<svg width="16" height="11" viewBox="0 0 16 11" fill="none" xmlns="http://www.w3.org/2000/svg">
<path d="M5.78368 8.58133L14.0322 0.332756C14.2269 0.1381 14.454 0.0407715 14.7135 0.0407715C14.9731 0.0407715 15.2002 0.1381 15.3948 0.332756C15.5895 0.527413 15.6868 0.758567 15.6868 1.02622C15.6868 1.29387 15.5895 1.52503 15.3948 1.71968L6.46498 10.6739C6.27032 10.8685 6.04322 10.9659 5.78368 10.9659C5.52414 10.9659 5.29704 10.8685 5.10238 10.6739L0.917268 6.48877C0.722612 6.29411 0.629339 6.06296 0.63745 5.7953C0.64556 5.52765 0.746944 5.2965 0.9416 5.10184C1.13626 4.90718 1.36741 4.80986 1.63506 4.80986C1.90272 4.80986 2.13387 4.90718 2.32853 5.10184L5.78368 8.58133Z" fill="#FAF9F8"/>
</svg>
