<svg width="24" height="24" viewBox="0 0 24 24" fill="none" xmlns="http://www.w3.org/2000/svg">
<path d="M15 11.5C15 13.2 13.7 14.5 12 14.5C10.3 14.5 9 13.2 9 11.5C9 9.8 10.3 8.5 12 8.5C13.7 8.5 15 9.8 15 11.5ZM23 11.5C23 11.9 22.9 12.4 22.6 12.7C21 14.8 17.5 19 12 19C6.5 19 3 14.8 1.4 12.7C1.1 12.4 1 11.9 1 11.5C1 11.1 1.1 10.6 1.4 10.3C3 8.2 6.5 4 12 4C17.5 4 21 8.2 22.6 10.3C22.9 10.6 23 11.1 23 11.5ZM17 11.5C17 8.7 14.8 6.5 12 6.5C9.2 6.5 7 8.7 7 11.5C7 14.3 9.2 16.5 12 16.5C14.8 16.5 17 14.3 17 11.5Z" fill="#9E9EA0"></path>
</svg>