<svg width="9" height="18" viewBox="0 0 9 18" fill="none" xmlns="http://www.w3.org/2000/svg">
<path d="M4.75543 14.7422L7.01831 12.4794C7.21297 12.2847 7.44818 12.1874 7.72394 12.1874C7.99971 12.1874 8.23492 12.2847 8.42957 12.4794C8.62423 12.674 8.72156 12.9092 8.72156 13.185C8.72156 13.4607 8.62423 13.696 8.42957 13.8906L5.43673 16.8835C5.3394 16.9808 5.23396 17.0497 5.12041 17.0903C5.00686 17.1308 4.8852 17.1511 4.75543 17.1511C4.62566 17.1511 4.504 17.1308 4.39045 17.0903C4.2769 17.0497 4.17146 16.9808 4.07414 16.8835L1.08129 13.8906C0.886635 13.696 0.789307 13.4607 0.789307 13.185C0.789307 12.9092 0.886635 12.674 1.08129 12.4794C1.27595 12.2847 1.51116 12.1874 1.78692 12.1874C2.06268 12.1874 2.29789 12.2847 2.49255 12.4794L4.75543 14.7422ZM4.75543 2.96551L2.49255 5.2284C2.29789 5.42305 2.06268 5.52038 1.78692 5.52038C1.51116 5.52038 1.27595 5.42305 1.08129 5.2284C0.886635 5.03374 0.789307 4.79853 0.789307 4.52277C0.789307 4.247 0.886635 4.01179 1.08129 3.81714L4.07414 0.824293C4.17146 0.726965 4.2769 0.658024 4.39045 0.617471C4.504 0.576917 4.62566 0.556641 4.75543 0.556641C4.8852 0.556641 5.00686 0.576917 5.12041 0.617471C5.23396 0.658024 5.3394 0.726965 5.43673 0.824293L8.42957 3.81714C8.62423 4.01179 8.72156 4.247 8.72156 4.52277C8.72156 4.79853 8.62423 5.03374 8.42957 5.2284C8.23492 5.42305 7.99971 5.52038 7.72394 5.52038C7.44818 5.52038 7.21297 5.42305 7.01831 5.2284L4.75543 2.96551Z" fill="#868797"/>
</svg>
